<?xml version="1.0"?>
<svg xmlns="http://www.w3.org/2000/svg" version="1.2" baseProfile="tiny" width="800" height="680" viewBox="0 0 800 680" stroke-linecap="round" stroke-linejoin="round">
<g id="ne_50m_admin_0_countries">
<path d="M 191.18 259.6 180.13 263.77 175.94 262.37 170.77 256.49 167.89 256.76 164.48 251.43 155.73 252.7 152.64 249.93 152.28 245.7 154.77 242.64 166.87 239.76 171.18 237.18 174.89 232.18 174.9 222.23 166.51 221.19 176.3 214.43 181.33 213.19 188.93 213.45 193.3 212.14 196.87 204.67 196.15 199.94 199.94 194.55 195.11 193.86 190.74 184.02 195.19 171.67 186.57 174.87 181.76 172.45 178.21 173.79 169.67 169.36 173.77 162.43 178.8 156.24 179.71 151.7 177.85 148.61 180.47 139.77 174.08 141.66 171.17 145.28 166.55 154.45 163.34 154.46 168.03 143.44 169.62 137.31 175.34 126.27 168.24 122.25 167.81 117.91 172.57 116.6 177.12 107.45 174.81 101.49 180.29 90.79 184.13 87.3 186.01 82.5 190.57 82.85 191.26 76.11 195.88 77.37 218.71 78.57 215.01 86.21 202.64 93.44 202.41 102.94 209.34 101.42 213.53 103.13 227.53 104.86 230.67 110.91 226.26 116.38 221.11 125.97 215.02 132.9 212.07 134.45 213.02 138.99 204.39 143.74 205.62 147.37 212.42 146.6 218.35 150.93 224 160.68 225.98 182.05 227.53 185.44 234.15 190.43 241.52 201.67 239.33 203.89 241.59 211.56 242.4 218.9 244.83 227.34 239.11 233.26 242.42 236.26 247.32 232.75 255.03 233.94 259.92 236.26 263.79 240.38 264.35 247.92 260.24 257.47 254.96 263.18 249.73 263.53 247.94 269.51 242.98 270.24 244.04 273.87 255.73 275.93 254.9 280.59 248.74 283.38 246.98 286.35 234.11 288.96 227.62 286.72 217.96 286.61 210.18 283 205.97 285.23 197.51 284.44 196.91 287.58 188.62 285.82 181.73 281.94 174.76 282.9 170.37 290.32 166.51 292.05 161.11 286.7 151.55 287.46 142.03 292.65 141.32 286.5 156.4 275.5 158.4 270.55 162.29 270 164.83 266.21 170.58 266.21 181.78 268.99 191.18 259.6 Z M 175.51 211.54 171.85 215.8 170.2 208.74 175.51 211.54 Z M 250.33 33.71 252.73 38.21 250.13 44.86 246.87 39.62 250.33 33.71 Z M 168.92 129.41 162.99 129.55 166.16 120.71 170.02 125.74 168.92 129.41 Z M 175.27 76.73 170.13 84.71 163.68 85.54 161.55 83.13 162.32 78.5 175.61 73.07 175.27 76.73 Z M 170.76 98.71 169.73 103.59 165.61 102.28 161.98 98.33 164.69 95.74 170.26 94.67 170.76 98.71 Z M 149.3 185.42 142.7 184.7 140.39 175.66 132.63 180.59 125.85 176.35 123.29 170.32 128.33 164.81 133.87 163.46 138.05 157.5 140.75 156.43 145.24 155.09 152.41 155.22 157.27 156.98 160.93 168.52 162.75 177.42 160.03 177.41 159.44 182.78 155.97 182.99 152.04 187.05 149.3 185.42 Z" fill-rule="evenodd" fill="none" stroke="#1e2b60" stroke-width="0.9"/>
<path d="M 799 358.39 795.55 360.24 786.66 358.16 784.96 354.07 790.65 351.06 782.32 347.25 779.57 350.21 775.11 350.66 763.32 357.23 763.32 362.28 761.48 369.9 758.02 377.36 748.44 384.99 753.02 395.17 749.86 393.04 743.58 393.85 736.45 400.28 730.6 400.22 725.41 397.28 729.65 394.68 729.03 390.56 734.65 378.76 734.87 375.28 731.93 369.37 735.06 365.77 748.17 366.99 748.41 361.82 745.68 354.71 739.55 352.74 737.3 345.7 729.31 342.2 727.13 331.25 723.07 330.96 718.52 327.12 710.75 328 700.67 323.67 695.76 323.23 691.01 327.23 684.51 328.35 681.39 332.49 676.42 335.12 675.16 341.06 663.71 345.74 654.94 352.72 648.48 348.36 641.73 350.36 624.19 348.93 619.21 353.45 616.66 349.61 613.35 349.54 604.49 343.87 604 339.64 606.1 336.18 608.55 325.53 610.93 322.51 608.37 313.22 613.18 302.83 622.02 288.5 626.12 286.85 627.08 281.15 626.13 275.28 616.77 264.72 614.82 259.57 615.83 256.1 619.99 256.79 625.07 248.27 638.93 243.53 649.38 241.89 658.22 242.56 669.37 241.58 672.22 244.61 686.56 241.19 693.48 241.16 694.81 243.13 701.35 237.03 706.23 242.07 709.1 239.87 718.26 236.11 722.04 239.18 726.48 237.07 723.18 231.46 723.67 225.37 726.77 218.11 731.9 214.94 738.28 213.09 741.91 213.45 746.07 210.27 747.93 204.32 754.26 203.69 757.31 200.36 766.07 197.27 769.66 198.63 774.84 204.38 780.84 207.82 777.51 211.8 783.07 220.08 790.86 221.2 795.96 218.49 799 220 799 358.39 Z" fill="none" stroke="#1e2b60" stroke-width="0.9"/>
<path d="M 799 623.23 796.13 621.84 792.31 614.92 785.74 616.38 780.4 614.97 772.53 618.28 772.05 611.01 756.11 615.05 758.4 608.43 751.57 606.3 747.17 599.39 749.93 597.75 748.78 591.3 736.61 588.23 734.83 589.93 728.33 587.97 730.31 583.21 739.3 583 739.65 580.03 735.63 574.89 739.69 569.27 735.36 568.28 735.33 564.18 731.02 560.46 732.49 552.95 718.91 558.49 717.64 544.9 720.05 543.45 726.4 532.07 736.7 528.23 741.14 530.8 756.41 524.89 770.34 521.72 765.27 519.15 767.97 515.88 783.31 508.35 774.69 509.33 767.4 505.91 767.32 501.38 771.34 498.97 783.14 497.88 790.9 494.5 799 494.79 799 623.23 Z M 742.24 486.49 742.38 489.51 748.08 496.15 751.41 497.68 766.3 500.23 765.7 506.33 762.54 508.06 750.31 508.27 746.09 511.72 738.03 514.12 734.94 522.46 726.55 529.43 719.87 540.87 717.42 536.33 726.26 526.08 713.04 529.42 711.17 526.76 715.66 519.73 714.19 512.5 718.98 507.1 717.1 502.21 711.54 500.38 715.83 492.81 728.06 486.94 733.46 489.9 742.24 486.49 Z" fill-rule="evenodd" fill="none" stroke="#1e2b60" stroke-width="0.9"/>
<path d="M 386.89 384.01 386.92 390.6 387.82 396.16 392.53 397.47 395.23 400.65 403.38 401.15 403.03 409.34 396.85 408.07 394.19 414.25 388.78 415.95 381.98 411.24 381.77 416.14 377.56 422.2 376.24 427.94 367.44 416.98 365.96 411.77 360.64 416.56 358.88 422.75 355.09 425.09 350.6 423.48 343.08 425.75 341.16 424.5 336.9 418.1 336.92 411.58 331.01 410.92 324.49 417.97 324.38 410.65 326.43 406 331.07 402.47 332.13 397.5 335.19 396.19 342.2 388.21 349.74 385.04 353.3 381.58 358.76 382.5 363.57 381.5 371.03 377.52 375.61 380.45 380.92 380.15 386.89 384.01 Z" fill="none" stroke="#1e2b60" stroke-width="0.9"/>
<path d="M 521.25 107.59 518.06 111.4 518.8 120.37 518 123.58 512.68 128.4 509.56 123.81 509.13 116.39 513.83 108.65 517.78 106.34 521.25 107.59 Z M 489.82 151.53 487.47 144.46 489.83 136.19 492.11 137.85 489.82 151.53 Z M 413.98 84.18 417.47 86.98 419.32 77.47 417.56 69.64 420.68 62.5 423.76 61.13 427.73 55.95 428.72 46.97 424.42 32.76 429.31 31.44 431.48 23.41 427.71 18.64 422.06 14.16 423.24 1 486.97 1 486.27 6.03 487.16 9.22 484.09 13.85 488.06 36.32 497.37 38.22 501.87 43.68 506.17 46 512.08 53.43 513.2 58.15 504.42 68.05 508.31 67.92 506.31 75.99 495.97 83.72 490.08 89.66 489.77 93.92 486.22 95.78 488.4 101.34 488.12 109.13 486.46 112.03 488.58 119.99 486.69 126.32 487.91 131.36 486.23 140.9 482.29 153.97 472.73 156.6 464.81 156.87 457.1 165.95 459.44 173.76 457.17 177.32 451.68 176.79 444.6 179.28 438.07 177.87 439.13 170.47 433.03 159.14 435.94 155.73 436.74 146.48 434.31 145.4 429.84 139.22 422.9 125.89 421.55 119.33 419.52 118.39 418.91 111.75 415.31 108.05 414.94 102.29 412.68 98.8 410.75 85.48 413.98 84.18 Z" fill-rule="evenodd" fill="none" stroke="#1e2b60" stroke-width="0.9"/>
<path d="M 257.35 578.38 263.51 581.32 258.5 588.95 254.85 590.84 248.97 587.46 246.56 583.44 241.41 581.45 250.26 576.04 258 573.75 257.35 578.38 Z M 280.49 578.95 271.7 574.77 272.08 572.56 279.47 573.93 280.49 578.95 Z M 172.18 473.37 172.63 475.62 178.75 478.79 180.44 483.79 189.9 488.34 192.76 492.44 198.3 492.52 202.76 496.7 215.59 498.35 217.3 494.5 229.29 499.98 230.53 502.59 231.2 506.88 235.6 505.58 241.48 510.13 244.87 508.72 251.75 511.38 259.77 508.99 264.33 510.35 263.08 514.78 263.98 522.99 258.87 527.12 244.66 533.57 239.75 537.72 229.42 538.99 218.6 541.22 211.66 546.62 214.11 550.49 208.72 551.69 203.24 558.71 193.17 568.96 187.01 577.42 188.02 589.49 190.94 594.35 195.31 598.36 189.62 602.14 182.47 605.09 176.15 611.61 171.11 622.38 170.7 625.73 160.23 624.71 153.18 628.19 149.4 631.63 145.45 638.51 141.27 642.26 131.33 639.87 127 641.54 117.38 638.82 113.62 639.41 105.6 636.71 94.29 635.6 87.02 639.76 81.59 638.81 76.35 639.83 71.12 646.37 65.12 648.01 57.26 642.08 55.26 637.82 54.49 630.72 52.31 629.18 51.64 620.64 44.82 612.78 34.13 610.73 34.27 599.99 36.23 596.65 42.88 590.81 46.35 590.59 42.08 578.65 44.66 572.41 50.35 568.61 52.08 565.04 49.04 562.25 45.8 550.82 46.4 547.12 54.76 548.17 59.13 540.98 57.8 535.72 62.48 533.2 63.95 525.26 63.71 515.76 69.37 511.58 80.15 505.53 74.59 500.56 74.57 493.37 66.81 491.38 59.11 492.7 49.62 489.09 44.83 489.83 46.44 484.71 45.55 481.39 39.07 481.5 33.82 483.6 32.74 478.91 37.42 475.58 36.33 470.04 33.76 466.27 34.16 460.23 31.58 455.17 33.85 450.46 40.42 447.86 46.62 449.38 52.52 448.12 53.2 444.52 64.5 442.36 67.92 443.84 71.54 448.58 93.3 453.53 97.87 453.18 100.89 455.5 121.26 464.1 125.16 464.89 138.82 464.7 148.61 470.37 152.14 468.8 161.69 473.75 172.18 473.37 Z" fill-rule="evenodd" fill="none" stroke="#1e2b60" stroke-width="0.9"/>
<path d="M 608.55 325.53 606.1 336.18 604 339.64 604.49 343.87 598.54 346.62 592.29 341.96 585.92 344.17 575.98 345.08 574.13 351.43 567.21 356.7 562.19 354.96 559.83 358.22 548.49 362.53 547.96 368.18 531.24 370.5 522.93 365.58 519.94 365.48 514.14 356.07 515.15 350.44 518.54 343.25 523.65 343.61 528.2 341.56 533.29 336.37 534.02 331.25 540.68 324.35 544.59 323.38 550.27 325.59 554.54 319.85 561.97 329.52 566.32 329.22 567.63 325.49 574.96 322.46 580.8 323.56 582.64 320.62 592.05 319.31 596.52 320.4 599.26 323.49 608.55 325.53 Z" fill="none" stroke="#1e2b60" stroke-width="0.9"/>
<path d="M 512.3 405.53 508.73 404.93 507.39 409.27 497.09 414.58 497.58 424.1 491.45 427.19 493.06 434 481.92 433.67 478.06 430.35 475.31 434.78 466.39 436.65 460.78 434.63 463.29 432.67 465.2 430.16 460.25 426.41 458.5 421.15 460.98 417.45 456.61 414 461.77 408.48 476.34 410.36 484.93 404.37 492.76 403.72 498.46 401.16 501.94 401.76 503.97 396.76 507.37 396.63 512.3 405.53 Z" fill="none" stroke="#1e2b60" stroke-width="0.9"/>
<path d="M 632.02 449.25 630.7 453.76 627.71 456.05 628.45 463.86 632.45 469.83 641.45 475.3 637.62 483.98 633.27 485.81 633.55 491.38 635.96 495.93 633.04 499.75 630.88 498.95 618.38 503.85 620.43 492.44 613.25 491.41 605.71 483.62 597.15 482.06 597.73 486.29 593.12 492.34 592.82 490.68 584.71 486.84 576.87 484.44 569.87 479.11 569.16 477.01 573.91 475.67 574.16 471.93 569.11 466.29 574.89 462.94 566.07 457.27 565.38 451.47 568.16 442.45 561.7 442.97 561.93 435.93 566.41 431.94 560.08 429.28 560.61 425.87 555.78 418.38 556.69 415.75 561.99 413.73 567.24 408.58 580.14 408.08 582.7 411.22 590.98 415.96 591.92 422.8 595.39 425.42 606.28 430.16 605.27 436.95 610.49 440.34 615.66 440.68 619.53 443.32 626.27 437.87 627.33 444.83 632.02 449.25 Z" fill="none" stroke="#1e2b60" stroke-width="0.9"/>
<path d="M 725.41 397.28 730.6 400.22 736.45 400.28 743.58 393.85 749.86 393.04 753.02 395.17 753.08 406.42 744.54 411.01 740.15 424.59 742.28 432.43 742.41 438.89 732.17 439.31 728.18 435.87 719.63 437.05 712.64 434.77 702.2 439.4 697.61 442.47 691.57 450.19 686.13 453.9 679.82 454.81 665.83 454.75 662.2 456.27 643.16 456.9 637.66 458.91 636.24 456.16 638.66 452.31 632.02 449.25 627.33 444.83 626.27 437.87 619.53 443.32 615.66 440.68 610.49 440.34 605.27 436.95 606.28 430.16 595.39 425.42 591.92 422.8 590.98 415.96 582.7 411.22 580.14 408.08 586.72 406.49 590.25 402.66 595.7 400.67 597.55 392.4 603.67 377.45 605.93 367.41 610.05 360.84 616.42 357.87 619.21 353.45 624.19 348.93 641.73 350.36 648.48 348.36 654.94 352.72 663.71 345.74 675.16 341.06 676.42 335.12 681.39 332.49 688.11 333.73 697.16 345.4 709.13 356.59 713.7 359.12 718.66 366.95 719.9 371.74 720.28 384.52 725.41 397.28 Z" fill="none" stroke="#1e2b60" stroke-width="0.9"/>
<path d="M 33.82 483.6 39.07 481.5 45.55 481.39 46.44 484.71 44.83 489.83 49.62 489.09 59.11 492.7 66.81 491.38 74.57 493.37 74.59 500.56 80.15 505.53 69.37 511.58 63.71 515.76 63.95 525.26 62.48 533.2 57.8 535.72 59.13 540.98 54.76 548.17 46.4 547.12 45.8 550.82 49.04 562.25 52.08 565.04 50.35 568.61 44.66 572.41 42.08 578.65 46.35 590.59 42.88 590.81 36.23 596.65 34.27 599.99 34.13 610.73 24.5 613.08 18.73 609.79 9.61 606.37 1 606.58 6.96 597.46 9.12 589.95 8.65 583.8 11.46 578.5 11.1 569.64 4.81 569.73 5.29 564.28 1.31 561.25 6.87 546.43 12.5 542.42 21.9 529.49 21.33 527.64 26.02 517.42 28.57 514.13 30.74 507.26 31.47 490.76 30.69 487.53 33.82 483.6 Z" fill="none" stroke="#1e2b60" stroke-width="0.9"/>
<path d="M 614.82 259.57 616.77 264.72 626.13 275.28 627.08 281.15 626.12 286.85 622.02 288.5 613.18 302.83 608.37 313.22 610.93 322.51 608.55 325.53 599.26 323.49 596.52 320.4 592.05 319.31 582.64 320.62 580.8 323.56 574.96 322.46 567.63 325.49 566.32 329.22 561.97 329.52 554.54 319.85 550.27 325.59 544.59 323.38 538.95 314.38 529.6 311.36 527.21 313.27 514.13 303.98 506.96 312.01 498.43 304.23 501.56 300.04 499.11 298.11 494.67 299.63 489.85 296.67 483.52 295.27 481.67 291.57 477.23 290.43 474.47 294.67 477.18 284.21 475.01 278.86 469.47 269.59 471.47 262.95 467.85 255.93 468.6 251.47 460.3 242.85 463.71 236.72 464.15 232.05 461.03 220.59 460.12 216.96 459.96 214.89 467.58 212.65 489.45 203.89 494.49 196.55 499.29 194.99 504.6 190.98 513.05 187.81 520.16 186.44 526.62 196.37 531.51 197.92 541.24 194.08 549.8 193.59 579.45 190.56 588.4 189.07 592.16 188.62 599.71 192.66 601.17 197.79 604.57 206.2 611.81 220.01 612.97 229.45 607.85 233.42 604.84 241.8 613.03 246.02 612.93 254.81 614.82 259.57 Z" fill="none" stroke="#1e2b60" stroke-width="0.9"/>
<path d="M 423.24 1 422.06 14.16 427.71 18.64 431.48 23.41 429.31 31.44 424.42 32.76 428.72 46.97 427.73 55.95 423.76 61.13 420.68 62.5 417.56 69.64 419.32 77.47 417.47 86.98 413.98 84.18 406.48 80.46 403.88 75.15 401.06 78.02 397.71 85.07 390.14 86.7 380.67 96.39 374.97 103.3 369.98 107.23 360.2 110.17 353.82 109.83 349.35 103.42 345.64 103.1 336.69 95.94 334.45 90.51 335.39 84.09 339.39 84.74 341.28 78.94 339.89 74.5 333.13 78.96 330.16 77.19 333.22 66.54 339.42 66.46 339.2 61.17 331.13 61.42 332.74 54.9 334.13 42.44 331.89 38.69 332.02 30.07 336.14 28.53 332.59 24.58 332.71 19.82 335.95 19.47 332.33 12.57 333.41 7.7 339.32 8.19 345.94 11.44 347.46 9.84 335.67 6.39 338.84 1 423.24 1 Z" fill="none" stroke="#1e2b60" stroke-width="0.9"/>
<path d="M 329.16 298.29 324.25 297.38 326.97 288.38 322 284.19 306.01 277.88 301.34 279.82 291.12 277.21 293.98 273.74 301.1 273.96 297.72 268.45 300.33 263.86 307.32 256.18 311.39 243.41 322.58 236.69 325.57 232.38 334.03 229.26 345.79 228.95 351.55 233.33 351.15 240.68 347.98 250.1 343.79 249.9 343.6 254.33 348.06 256.7 346.94 261.21 343.17 263.83 342.84 268.71 336.52 270.66 333.55 269.05 329.87 271.93 333.44 279.26 327.86 292.12 330.28 294.32 329.16 298.29 Z M 301.34 279.82 295.69 284.04 287.11 278.84 295.71 280.2 301.34 279.82 Z" fill-rule="evenodd" fill="none" stroke="#1e2b60" stroke-width="0.9"/>
<path d="M 569.16 477.01 569.87 479.11 576.87 484.44 584.71 486.84 592.82 490.68 593.12 492.34 587.45 495.63 588.71 500.29 583.67 502.82 580.63 499.23 574.86 511.88 576.95 519.55 567.2 510.8 559.45 506.92 557.55 503.82 559.29 500.64 556.59 493.26 559.84 491.34 560.23 485.99 564.49 478.54 569.16 477.01 Z" fill="none" stroke="#1e2b60" stroke-width="0.9"/>
<path d="M 681.39 332.49 684.51 328.35 691.01 327.23 695.76 323.23 700.67 323.67 710.75 328 718.52 327.12 723.07 330.96 727.13 331.25 729.31 342.2 737.3 345.7 739.55 352.74 745.68 354.71 748.41 361.82 748.17 366.99 735.06 365.77 731.93 369.37 734.87 375.28 734.65 378.76 729.03 390.56 729.65 394.68 725.41 397.28 720.28 384.52 719.9 371.74 718.66 366.95 713.7 359.12 709.13 356.59 697.16 345.4 688.11 333.73 681.39 332.49 Z" fill="none" stroke="#1e2b60" stroke-width="0.9"/>
<path d="M 618.38 503.85 630.88 498.95 633.04 499.75 638.43 504.35 643.74 506.38 648.12 512.9 647.95 522.95 644.88 527.63 640.63 529.93 635.52 529.81 629.7 532 627.37 536.49 623.68 539.2 611.78 541.49 607.22 540.7 601.07 531.96 599.46 525.67 600.56 516.29 603.89 515.02 603.97 510.64 609.03 507.27 613.05 508.55 618.38 503.85 Z" fill="none" stroke="#1e2b60" stroke-width="0.9"/>
<path d="M 588.4 189.07 586.48 185.8 587.11 176.53 582.19 171.55 574.89 172.7 561.72 169.36 560.98 164.63 556.94 155.79 555.66 149.22 563.33 141.53 569.06 138.13 593.97 135.63 598.68 136.43 604.29 134.43 609.02 130.73 612.48 135.27 620.19 135.47 628.65 139.82 632.31 142.9 637.27 143.97 637.3 152.7 642.31 153.38 640.66 157.61 636.13 158.42 635.24 162.28 631.14 165.46 631.22 174.95 629.92 181.46 620.28 193.07 613.95 196.54 611.75 195.45 601.17 197.79 599.71 192.66 592.16 188.62 588.4 189.07 Z" fill="none" stroke="#1e2b60" stroke-width="0.9"/>
<path d="M 636.08 94.19 643.51 98.01 646.63 109.36 652.88 116.43 656.18 123.29 656.21 126.46 653.13 129.06 650.43 137.23 642.79 138.26 637.27 143.97 632.31 142.9 628.65 139.82 620.19 135.47 612.48 135.27 609.02 130.73 604.29 134.43 598.68 136.43 593.97 135.63 569.06 138.13 563.33 141.53 555.66 149.22 554.44 144.42 552.91 129.75 556.02 124.13 556.23 116.04 558.88 109.04 569.54 103.15 571.44 106.22 579.5 111.96 582.75 117.56 588.37 119.65 592.12 117.91 596.12 112.75 596.98 108.5 592.93 94.79 602.52 87.63 605.74 87.57 615.72 90.72 621.32 95.79 624.94 96.82 629.43 93.65 636.08 94.19 Z" fill="none" stroke="#1e2b60" stroke-width="0.9"/>
<path d="M 593.12 492.34 597.73 486.29 597.15 482.06 605.71 483.62 613.25 491.41 620.43 492.44 618.38 503.85 613.05 508.55 609.03 507.27 603.97 510.64 603.89 515.02 600.56 516.29 597.84 507.52 592.76 505.2 588.71 500.29 587.45 495.63 593.12 492.34 Z" fill="none" stroke="#1e2b60" stroke-width="0.9"/>
<path d="M 341.16 424.5 343.08 425.75 350.6 423.48 355.09 425.09 358.88 422.75 360.64 416.56 365.96 411.77 367.44 416.98 376.24 427.94 377.56 422.2 381.77 416.14 381.98 411.24 388.78 415.95 394.19 414.25 396.85 408.07 403.03 409.34 403.38 401.15 413.62 402.82 417.47 398.11 426.93 397.65 433.87 394.97 433.7 398.79 438.06 404.71 452.17 407.56 461.77 408.48 456.61 414 460.98 417.45 458.5 421.15 460.25 426.41 465.2 430.16 463.29 432.67 453.71 428.34 450.64 431.95 441.06 436.87 436.98 437.41 436.24 442.74 441.95 449.67 437.05 456.2 440.19 469.05 445.91 474.81 450.04 476.56 457.6 482.35 462.81 485.1 467.85 495 472.4 507.5 475.96 512.06 489.82 523.01 495.89 525.69 511.32 524.4 515.3 525.21 515.31 528.79 510.95 532.71 513.23 537.35 524.2 541.72 535.4 545.12 543.2 550.13 553.14 553.94 561.26 560.47 565.09 566.97 562.99 574.58 557.38 572.18 552.29 563.79 544.47 563.68 538.9 559.76 533.27 561.02 528.8 569.76 526.57 577.16 528.38 582.73 533.07 583.89 539.34 588.44 541.4 598.18 533.12 601.75 529.47 606.6 529.81 614.49 524.72 619.05 520.65 627.35 513.79 627.95 511.7 621.99 515.17 618.43 517.5 607.64 521.99 606.08 517.36 591.04 513.45 584.28 509.55 575.14 501.44 573.66 494.3 569.76 494.79 566.14 489.96 558.91 483.94 560.2 480.7 555.73 476.6 555.58 468.81 545.4 459.18 544.46 456.11 545.76 451.25 541.68 446.91 540.26 435.71 528.4 430.4 524.88 427 519.63 418.17 515.41 417.81 513.38 408.86 503.1 405.15 502.32 405.45 497.84 401.37 488.2 399.92 479.41 396.18 475.06 390.23 472.94 381.99 467.23 372.24 464.43 368.21 466.34 359.15 477.22 347.95 480.83 351.14 474.01 350.97 470.6 345.95 471.41 338.53 467.16 336.44 461.09 340.14 455.88 339.55 452.99 334.93 450.35 333.11 445.16 341.53 442.34 343.07 438.22 340.6 435.53 337.11 427.22 341.16 424.5 Z M 510.26 620.93 503.91 632.65 501.61 641.23 506.38 652.41 503.38 655.76 503.06 661.04 495.94 660.91 490.06 658.99 487 654.68 482.13 651.57 477.16 651.91 456.19 640.72 451.5 640.86 445.84 634.65 447.98 628.57 451.73 625.08 455.34 628.77 460.51 624.55 464.47 624.64 471.48 628.96 488.45 626.89 495.29 623.21 500.94 623.34 508.54 619.23 510.26 620.93 Z M 388 556.34 391.41 566.25 388.15 572.22 389.29 576.79 387.52 595.83 386.39 600.69 376.11 598.71 375.37 603.76 372.44 607.09 367.69 606.66 363.12 599.36 362.87 592.23 364.04 586.05 363.26 580.98 364.72 571.3 359.3 561.89 359.7 556.23 364.92 557.29 371.96 554.42 375.51 550.32 381.15 548.02 387.68 552.84 388 556.34 Z" fill-rule="evenodd" fill="none" stroke="#1e2b60" stroke-width="0.9"/>
<path d="M 140.75 156.43 138.05 157.5 133.87 163.46 128.33 164.81 123.29 170.32 125.85 176.35 132.63 180.59 140.39 175.66 142.7 184.7 149.3 185.42 146.8 187.57 147.44 198.71 145.94 205.78 145.41 215.68 140.27 224.81 132.88 232.61 129.57 231.25 117.34 231.3 114.47 233.8 94.03 239.2 85.91 239.36 77.42 237.41 82.82 233.32 80 230.06 71.82 227.22 71.74 225.29 80.16 220.41 82.81 213.89 88.77 211.34 101.81 211.62 99.18 208.86 95.54 211.15 89.82 209.05 96.86 198.95 91.52 189.38 91.69 184.1 94.98 173.77 94.9 166.34 104.99 168.57 115.18 173.16 115.44 170.09 122.26 167.54 115.67 161.09 122.68 157.31 125.88 151.2 133.01 151.59 141.99 149.71 145.37 153.63 140.75 156.43 Z" fill="none" stroke="#1e2b60" stroke-width="0.9"/>
<path d="M 604.49 343.87 613.35 349.54 616.66 349.61 619.21 353.45 616.42 357.87 610.05 360.84 605.93 367.41 603.67 377.45 597.55 392.4 595.7 400.67 590.25 402.66 586.72 406.49 580.14 408.08 567.24 408.58 561.99 413.73 556.69 415.75 552.45 416.89 548.71 420.99 540.14 421.87 527.75 417.24 516.64 407.32 512.3 405.53 507.37 396.63 503.97 396.76 510.07 392.49 508.94 383.17 512.09 380.8 513.73 374.42 519.26 373.34 519.94 365.48 522.93 365.58 531.24 370.5 547.96 368.18 548.49 362.53 559.83 358.22 562.19 354.96 567.21 356.7 574.13 351.43 575.98 345.08 585.92 344.17 592.29 341.96 598.54 346.62 604.49 343.87 Z" fill="none" stroke="#1e2b60" stroke-width="0.9"/>
<path d="M 598.85 580.33 594.87 580.11 589.36 573.92 595.05 572.64 596.27 579.69 598.85 580.33 Z M 667.52 582.04 669.11 584.61 677.95 587.3 682.46 586.87 687.97 597.69 694.1 598.43 693.65 603.19 687.12 600.55 682.48 594.26 676.75 595.02 673.26 591.68 664.89 586.64 660.11 585.58 661.94 581.87 667.52 582.04 Z M 724.67 590.32 718.39 583.98 721.16 580.92 724.56 583.72 724.67 590.32 Z M 725.46 560.71 729.9 565.56 728.42 569.52 722.04 569.51 716.43 567.72 715.77 563.92 720.41 560.65 725.46 560.71 Z M 703.1 548.17 702.35 552.96 696.33 553.01 695.56 549.28 703.1 548.17 Z M 771.93 640.25 769.15 640.16 768.05 634.74 771.22 629.38 776.07 626.07 776.66 631.67 771.93 640.25 Z M 690.46 667.69 696.82 664.95 700.87 670.25 709.21 667.06 725.6 666.92 730.75 664.74 732.01 669.9 743.05 664.25 742.97 670.16 712.97 679.19 710.39 675.64 704.91 674.82 685.29 674.9 684.52 668.78 690.46 667.69 Z M 711.54 500.38 717.1 502.21 718.98 507.1 714.19 512.5 715.66 519.73 711.17 526.76 707.04 524.53 694.9 524.72 691.79 523.72 686.4 528.43 678.21 528.58 673.19 534.52 666.86 535.07 670.01 539.85 668.02 547.02 673.61 550.51 671.4 553.35 667.18 548.82 660.28 550.26 651.36 546.99 648.98 542.7 645.74 545.44 646.81 557.3 652.56 562.53 654.9 566.64 663.63 574.05 657.56 574.01 654.77 576.39 658.21 581.77 655.27 588.32 665.47 590.21 668.36 593.27 672.56 593.46 675.44 596.54 681.49 597.47 683.23 600.7 685.68 611.55 681.76 610.48 674.75 605.64 667.09 608.36 668.51 616.99 671.67 617.03 675.21 620.53 668.91 624.43 667.15 621.93 659.99 619.37 660.52 624.3 666.72 633.13 669.28 639 668.35 645.61 663.15 639.75 659.61 640.51 657.92 646.32 647.75 635.92 645.31 637.33 644.89 643.99 637.27 636.2 638.74 630.01 635.43 624.47 630.01 621.94 625.38 616.1 629.72 608.21 634.99 607.98 637.83 603.53 653.5 606.63 658.97 609.17 665.17 605.69 660.81 603.07 649.54 598.77 645.91 601.6 640.38 600.93 630.69 604.81 628.72 602.85 623.16 604.28 619.8 597.74 614.93 594.43 614.54 591.34 620.68 591.57 621.08 587.73 614.33 589.27 607.25 583.82 603.65 582.44 600.77 577.12 596.46 573.43 600.74 574.32 603.63 569.01 601.78 565.66 608.21 561.17 610.05 552.32 613.75 546.21 611.78 541.49 623.68 539.2 627.37 536.49 629.7 532 635.52 529.81 640.63 529.93 644.88 527.63 647.95 522.95 661.63 519.19 669.12 514.09 677.89 511.73 679.89 514.24 690.82 515.42 693.43 516.8 703.26 512.43 706.01 512.34 709.83 508.24 706.91 502.55 711.54 500.38 Z" fill-rule="evenodd" fill="none" stroke="#1e2b60" stroke-width="0.9"/>
<path d="M 386.89 384.01 380.92 380.15 375.61 380.45 371.03 377.52 363.57 381.5 358.76 382.5 353.3 381.58 351.85 379.42 353.14 369.31 357.99 354.58 363.37 348.21 363.33 345.94 354.43 343.38 351.76 340.94 344.43 341.41 339.57 340.24 335.19 332.68 333.28 332.33 336.12 323.46 332.33 321.35 330.32 314.76 334.72 309.9 332.95 302.5 329.16 298.29 330.28 294.32 327.86 292.12 333.44 279.26 329.87 271.93 333.55 269.05 336.52 270.66 342.84 268.71 343.17 263.83 346.94 261.21 348.06 256.7 343.6 254.33 343.79 249.9 347.98 250.1 351.15 240.68 351.55 233.33 349.4 230.8 350.43 226.12 353.32 222.99 364.51 223.11 372.62 226.79 374.03 218.53 378.3 219.63 378.61 208.56 374.74 204.93 379.49 201.35 375.45 194.68 375.32 191.77 385.38 194.44 391.37 193.98 395.62 197.93 398.52 204.83 400.76 204.05 406.43 207.19 410.7 205.5 410.7 210.66 407.71 213.46 416.8 216.72 422.76 211.35 427.56 210.63 434.37 202.61 441.3 203.81 448.01 210.56 452.21 210.03 454.79 217.71 461.03 220.59 464.15 232.05 463.71 236.72 460.3 242.85 468.6 251.47 467.85 255.93 471.47 262.95 469.47 269.59 475.01 278.86 477.18 284.21 474.47 294.67 469.27 291.06 467.17 294.09 453.58 300.19 452.78 302.21 436.13 309.84 433.35 314.32 436.56 320.1 435.61 325.75 439.94 332.85 448.89 340.39 456.08 345.24 460.9 350.02 460.63 354.71 455.49 355.11 454.38 360.05 444.29 366.55 443.43 368.79 446.99 373.48 448.59 378.41 448.48 384.16 442.51 379.41 425.53 382.15 418.22 386.42 412.63 387.2 410.69 384.05 402.88 383.58 400.83 389.51 390.86 382.7 386.89 384.01 Z M 451.67 204.07 446.6 207.89 443.85 205.93 443.4 200.25 446.92 196.05 450.88 200.12 451.67 204.07 Z" fill-rule="evenodd" fill="none" stroke="#1e2b60" stroke-width="0.9"/>
<path d="M 385.31 506.52 386.56 524.04 383.62 529.29 383.46 534.34 379.29 543.26 371.93 537.9 370.25 533.39 370.05 524.73 367.49 521.49 370.47 512.97 385.31 506.52 Z M 353.3 381.58 349.74 385.04 342.2 388.21 335.19 396.19 332.13 397.5 331.07 402.47 326.43 406 324.38 410.65 324.49 417.97 331.01 410.92 336.92 411.58 336.9 418.1 341.16 424.5 337.11 427.22 340.6 435.53 343.07 438.22 341.53 442.34 333.11 445.16 334.93 450.35 339.55 452.99 340.14 455.88 336.44 461.09 338.53 467.16 345.95 471.41 350.97 470.6 351.14 474.01 347.95 480.83 341.96 483.42 328.41 495.56 321.08 497.72 315.27 496.74 307.78 492.91 306.31 489.8 301.53 486.9 293.26 487.82 284.66 484.15 282.75 481.67 266.89 490.74 262.34 497.56 262.36 506.01 264.33 510.35 259.77 508.99 251.75 511.38 244.87 508.72 241.48 510.13 235.6 505.58 230.53 502.59 229.29 499.98 217.3 494.5 215.59 498.35 202.76 496.7 198.3 492.52 192.76 492.44 189.9 488.34 180.44 483.79 178.75 478.79 172.63 475.62 172.18 473.37 178.56 470.26 182.84 458.92 186.69 445.32 189.95 429.99 193.28 420.74 192.24 416.55 194.56 413.74 195 400.5 190.76 398.83 184.41 393.49 180.77 385.11 182.41 379.38 175.09 370.9 177.07 367.04 171.31 364.91 165.38 359.07 153.27 353.03 146.14 352.04 142.01 344.23 147.43 337.81 141.87 336.82 142.74 332.29 154.74 330.21 160.56 331.25 169.33 329.42 172.95 331.4 177.1 338.86 181.76 336.71 198.87 339.7 197.35 335.13 198.64 324.86 195.43 313.97 196.02 311.73 205.96 313.4 206.83 321.25 217.08 323.65 222.88 325.99 230.87 322.71 228.37 319.89 230.17 316.31 237.87 313.12 248.78 310.92 254.75 303.87 256.53 292.4 258.48 288.8 262.71 286.5 272.99 284.81 273.58 290.67 277.15 295.32 281.7 293.99 283.85 300.67 289.52 303.12 291.28 306.25 298.16 309.36 297.6 316.79 305.71 316.31 308.87 322.12 315.6 325.45 319.19 330.03 324 329.61 326.76 331.94 333.28 332.33 335.19 332.68 339.57 340.24 344.43 341.41 351.76 340.94 354.43 343.38 363.33 345.94 363.37 348.21 357.99 354.58 353.14 369.31 351.85 379.42 353.3 381.58 Z" fill-rule="evenodd" fill="none" stroke="#1e2b60" stroke-width="0.9"/>
<path d="M 629.45 1 626.75 5.6 621.76 16.67 618.08 19.54 614.84 18.36 606.84 23.7 596.3 28.29 590.81 33.23 581.33 39.29 573.8 42.85 561.34 42.26 557.33 44.25 557.18 35.54 552.94 35.19 541.61 31.94 539.02 22.56 539.6 17.11 538.13 7.28 539.27 6.05 536.06 1 629.45 1 Z" fill="none" stroke="#1e2b60" stroke-width="0.9"/>
<path d="M 631.69 42.5 631.35 54.27 628.95 60.57 632.52 70.62 633.04 74.94 639.42 84.9 636.87 86.67 636.08 94.19 629.43 93.65 624.94 96.82 621.32 95.79 615.72 90.72 605.74 87.57 602.52 87.63 592.93 94.79 593.07 81.86 587.99 85.25 582.83 83.76 577.83 76.81 575.46 70.3 574.87 63.11 582.07 59.13 584.96 53.73 591.12 51.11 598.44 49.54 598.59 46.36 613.45 45.2 618.61 46.72 630.63 44.67 631.69 42.5 Z M 566.11 79.98 570.83 79.54 575.83 81.85 569.73 88.89 562.53 92.99 557.89 90.92 559.6 84.92 566.11 79.98 Z M 569.2 73.97 564.78 78.4 562.21 74.26 563.5 68.26 568.2 69.79 569.2 73.97 Z" fill-rule="evenodd" fill="none" stroke="#1e2b60" stroke-width="0.9"/>
<path d="M 433.02 168.32 433.15 170.93 428.09 176.79 431.18 181.39 426.45 184.09 426.14 193.81 421.42 191.33 419.95 184.29 414.46 183.94 412.91 177.17 409.69 170.55 414.73 169.66 416.87 164.65 422.58 163.87 427.61 159.81 432.9 161.06 433.02 168.32 Z M 391.37 193.98 385.38 194.44 375.32 191.77 374.77 178.35 367.72 173.46 369.01 163.53 367.94 159.4 368.88 147.26 374.45 148.6 370.77 140.91 375.68 134.28 385.34 133.5 388.98 131.29 394.76 122.24 398.92 121.29 402.84 125.66 402.7 131 399.5 137.38 399.35 147.24 402.36 149.82 407.48 149.74 407.71 155.63 399.92 157.85 397.97 166.91 389.24 176.58 390.39 182.49 389.98 188.83 391.37 193.98 Z M 404.81 173.52 407.46 180.99 407.01 185.9 401.91 188.15 395.12 185.19 393.23 176.01 399.51 173.52 404.81 173.52 Z M 415.74 192.07 421.47 194.14 421.95 197.46 417.32 198.88 410.89 195.24 411.17 190.87 415.74 192.07 Z M 471.4 186.18 465.23 184.5 466.1 179.37 471.84 182.95 471.4 186.18 Z" fill-rule="evenodd" fill="none" stroke="#1e2b60" stroke-width="0.9"/>
<path d="M 544.59 323.38 540.68 324.35 534.02 331.25 533.29 336.37 528.2 341.56 523.65 343.61 518.54 343.25 515.15 350.44 513.7 347.83 506.53 345.96 499.42 347.75 486.21 343.05 480.41 343.2 479.92 348.77 476.23 353.51 465.16 354.08 460.9 350.02 456.08 345.24 448.89 340.39 439.94 332.85 435.61 325.75 436.56 320.1 433.35 314.32 436.13 309.84 452.78 302.21 453.58 300.19 467.17 294.09 469.27 291.06 474.47 294.67 477.23 290.43 481.67 291.57 483.52 295.27 489.85 296.67 494.67 299.63 499.11 298.11 501.56 300.04 498.43 304.23 506.96 312.01 514.13 303.98 527.21 313.27 529.6 311.36 538.95 314.38 544.59 323.38 Z" fill="none" stroke="#1e2b60" stroke-width="0.9"/>
<path d="M 460.78 434.63 466.39 436.65 475.31 434.78 478.06 430.35 481.92 433.67 493.06 434 491.45 427.19 497.58 424.1 497.09 414.58 507.39 409.27 508.73 404.93 512.3 405.53 516.64 407.32 527.75 417.24 540.14 421.87 548.71 420.99 552.45 416.89 556.69 415.75 555.78 418.38 560.61 425.87 560.08 429.28 566.41 431.94 561.93 435.93 561.7 442.97 558.53 442.99 554.78 438.35 542.39 438.05 539.2 440.06 526.36 438.9 522.33 436.55 520.17 438.83 515.36 438.74 511.44 444.5 506.2 440.22 501.81 440.85 501.65 451.62 509.52 458.6 511.61 465.17 521.88 475.64 529.46 481.78 533.2 483.27 533.89 486.85 540.82 493.01 540.32 495.79 531.01 489.59 526.31 485.31 516.36 482.26 508.69 483.51 507.6 480.04 498.81 474.15 491.15 465.63 493.67 462.16 486.17 454.27 484.82 444.61 478.89 439.34 475.81 438.37 468.77 451.94 466.82 452 462.21 445.19 459.71 435.6 460.78 434.63 Z M 484.17 447.36 481.93 448.06 477.12 444.63 479.38 441.21 484.17 447.36 Z M 478.69 455.95 474.85 448.88 477.85 447.93 478.69 455.95 Z M 557.55 503.82 559.45 506.92 542 496.69 557.55 503.82 Z" fill-rule="evenodd" fill="none" stroke="#1e2b60" stroke-width="0.9"/>
<path d="M 742.24 486.49 733.46 489.9 728.06 486.94 715.83 492.81 711.54 500.38 706.91 502.55 709.83 508.24 706.01 512.34 703.26 512.43 693.43 516.8 690.82 515.42 679.89 514.24 677.89 511.73 669.12 514.09 661.63 519.19 647.95 522.95 648.12 512.9 643.74 506.38 638.43 504.35 633.04 499.75 635.96 495.93 633.55 491.38 633.27 485.81 637.62 483.98 641.45 475.3 632.45 469.83 628.45 463.86 627.71 456.05 630.7 453.76 632.02 449.25 638.66 452.31 636.24 456.16 637.66 458.91 643.16 456.9 662.2 456.27 665.83 454.75 679.82 454.81 686.13 453.9 691.57 450.19 697.61 442.47 702.2 439.4 712.64 434.77 719.63 437.05 728.18 435.87 732.17 439.31 742.41 438.89 743.43 445.1 742.33 448.39 736.2 449.76 733.65 456.01 735.42 467.26 733.15 468.97 729.47 476.23 734.32 478.23 742.24 486.49 Z" fill="none" stroke="#1e2b60" stroke-width="0.9"/>
<path d="M 561.7 442.97 568.16 442.45 565.38 451.47 566.07 457.27 574.89 462.94 569.11 466.29 574.16 471.93 573.91 475.67 569.16 477.01 564.49 478.54 560.23 485.99 559.84 491.34 556.59 493.26 559.29 500.64 557.55 503.82 542 496.69 540.32 495.79 540.82 493.01 533.89 486.85 533.2 483.27 529.46 481.78 521.88 475.64 511.61 465.17 509.52 458.6 501.65 451.62 501.81 440.85 506.2 440.22 511.44 444.5 515.36 438.74 520.17 438.83 522.33 436.55 526.36 438.9 539.2 440.06 542.39 438.05 554.78 438.35 558.53 442.99 561.7 442.97 Z" fill="none" stroke="#1e2b60" stroke-width="0.9"/>
<path d="M 301.34 279.82 306.01 277.88 322 284.19 326.97 288.38 324.25 297.38 329.16 298.29 332.95 302.5 334.72 309.9 330.32 314.76 328.04 313.44 323.8 319.65 325.69 326.93 324 329.61 319.19 330.03 315.6 325.45 308.87 322.12 305.71 316.31 297.6 316.79 298.16 309.36 291.28 306.25 289.52 303.12 283.85 300.67 281.7 293.99 277.15 295.32 273.58 290.67 272.99 284.81 287.11 278.84 295.69 284.04 301.34 279.82 Z" fill="none" stroke="#1e2b60" stroke-width="0.9"/>
<path d="M 738.28 213.09 731.9 214.94 726.77 218.11 723.67 225.37 723.18 231.46 726.48 237.07 722.04 239.18 718.26 236.11 709.1 239.87 706.23 242.07 701.35 237.03 694.81 243.13 693.48 241.16 686.56 241.19 672.22 244.61 669.37 241.58 658.22 242.56 649.38 241.89 638.93 243.53 625.07 248.27 619.99 256.79 615.83 256.1 614.82 259.57 612.93 254.81 613.03 246.02 604.84 241.8 607.85 233.42 612.97 229.45 611.81 220.01 604.57 206.2 601.17 197.79 611.75 195.45 613.95 196.54 620.28 193.07 629.92 181.46 631.22 174.95 631.14 165.46 635.24 162.28 636.13 158.42 640.66 157.61 642.31 153.38 637.3 152.7 637.27 143.97 642.79 138.26 650.43 137.23 653.13 129.06 656.21 126.46 662.39 126.21 666.66 129.11 670.21 126.02 674.83 126.98 678.15 132.96 683.38 127.1 687.53 125.9 699.05 130 699.98 137.7 704.04 142.72 703.52 150.2 709.18 152.18 711.59 156.8 716.74 162.27 723.47 164.02 724.85 170.33 731.6 169 735.95 170.03 737.42 173.58 742.57 177.71 736.23 186.52 724.66 187.26 723.67 192.48 729.47 196.69 733.84 208.67 738.28 213.09 Z" fill="none" stroke="#1e2b60" stroke-width="0.9"/>
<path d="M 403.38 401.15 395.23 400.65 392.53 397.47 387.82 396.16 386.92 390.6 386.89 384.01 390.86 382.7 400.83 389.51 402.88 383.58 410.69 384.05 412.63 387.2 418.22 386.42 425.53 382.15 442.51 379.41 448.48 384.16 448.59 378.41 446.99 373.48 443.43 368.79 444.29 366.55 454.38 360.05 455.49 355.11 460.63 354.71 460.9 350.02 465.16 354.08 476.23 353.51 479.92 348.77 480.41 343.2 486.21 343.05 499.42 347.75 506.53 345.96 513.7 347.83 515.15 350.44 514.14 356.07 519.94 365.48 519.26 373.34 513.73 374.42 512.09 380.8 508.94 383.17 510.07 392.49 503.97 396.76 501.94 401.76 498.46 401.16 492.76 403.72 484.93 404.37 476.34 410.36 461.77 408.48 452.17 407.56 438.06 404.71 433.7 398.79 433.87 394.97 426.93 397.65 417.47 398.11 413.62 402.82 403.38 401.15 Z" fill="none" stroke="#1e2b60" stroke-width="0.9"/>
<path d="M 576.95 519.55 574.86 511.88 580.63 499.23 583.67 502.82 588.71 500.29 592.76 505.2 597.84 507.52 600.56 516.29 599.46 525.67 601.07 531.96 607.22 540.7 611.78 541.49 613.75 546.21 610.05 552.32 608.21 561.17 601.78 565.66 603.63 569.01 600.74 574.32 596.46 573.43 592.45 565.24 582.72 560.19 582.98 555.32 580.67 551.64 582.05 543.35 580.18 530.75 582.15 524.87 581.74 521.08 576.95 519.55 Z" fill="none" stroke="#1e2b60" stroke-width="0.9"/>
</g>
</svg>